<svg xmlns="http://www.w3.org/2000/svg" width="1179" height="2556" viewBox="0 0 393 852">
<style>text{font-family:-apple-system,BlinkMacSystemFont,"PingFang TC","Noto Sans CJK TC",sans-serif}</style>
<rect x="0" y="0" width="393" height="852" rx="0" fill="#edf0eb" stroke="none" stroke-width="0"/><text x="24" y="27" font-size="13" font-weight="650" fill="#18221e" text-anchor="start">9:41</text><rect x="140.5" y="11" width="112" height="29" rx="15" fill="#090b0a" stroke="none" stroke-width="0"/><text x="368" y="27" font-size="11" font-weight="600" fill="#18221e" text-anchor="end">●  5G  ▰</text><rect x="0" y="46" width="393" height="50" rx="0" fill="#ffffff" stroke="none" stroke-width="0"/><line x1="0" y1="96" x2="393" y2="96" stroke="#edf0ee" stroke-width="1"/><text x="18" y="78" font-size="32" font-weight="350" fill="#087b58" text-anchor="start">‹</text><text x="39" y="75" font-size="15" font-weight="500" fill="#087b58" text-anchor="start">返回</text><text x="196.5" y="76" font-size="17" font-weight="650" fill="#18221e" text-anchor="middle">修正位置</text><rect x="0" y="97" width="393" height="497" rx="0" fill="#e4efe7" stroke="none" stroke-width="0"/><line x1="0" y1="130" x2="393" y2="110" stroke="#ffffff" stroke-width="9"/><line x1="0" y1="194" x2="393" y2="174" stroke="#ffffff" stroke-width="9"/><line x1="0" y1="258" x2="393" y2="238" stroke="#ffffff" stroke-width="9"/><line x1="0" y1="322" x2="393" y2="302" stroke="#ffffff" stroke-width="9"/><line x1="0" y1="386" x2="393" y2="366" stroke="#ffffff" stroke-width="9"/><line x1="0" y1="450" x2="393" y2="430" stroke="#ffffff" stroke-width="9"/><line x1="0" y1="514" x2="393" y2="494" stroke="#ffffff" stroke-width="9"/><line x1="25" y1="97" x2="5" y2="594" stroke="#cddbd2" stroke-width="2"/><line x1="101" y1="97" x2="81" y2="594" stroke="#cddbd2" stroke-width="2"/><line x1="177" y1="97" x2="157" y2="594" stroke="#cddbd2" stroke-width="2"/><line x1="253" y1="97" x2="233" y2="594" stroke="#cddbd2" stroke-width="2"/><line x1="329" y1="97" x2="309" y2="594" stroke="#cddbd2" stroke-width="2"/><line x1="405" y1="97" x2="385" y2="594" stroke="#cddbd2" stroke-width="2"/><rect x="100.5" y="111" width="192" height="36" rx="18" fill="#ffffffdd" stroke="none" stroke-width="0"/><text x="196.5" y="135" font-size="13" font-weight="650" fill="#18221e" text-anchor="middle">輕點地圖修正大頭針位置</text><text x="196.5" y="315" font-size="57" font-weight="700" fill="#e94444" text-anchor="middle">●</text><text x="196.5" y="351" font-size="13" font-weight="650" fill="#18221e" text-anchor="middle">店家位置</text><rect x="0" y="594" width="393" height="258" rx="0" fill="#ffffff" stroke="none" stroke-width="0"/><text x="20" y="627" font-size="14" font-weight="550" fill="#18221e" text-anchor="start">◆  25.033976, 121.564472</text><rect x="20" y="645" width="353" height="46" rx="9" fill="#f7f8f7" stroke="#d5dcd8" stroke-width="1"/><text x="33" y="674" font-size="14" font-weight="400" fill="#18221e" text-anchor="start">台北市信義區松智路 17 號</text><rect x="20" y="706" width="353" height="43" rx="10" fill="#ffffff" stroke="#147a58" stroke-width="1.4"/><text x="196.5" y="734" font-size="15" font-weight="600" fill="#147a58" text-anchor="middle">↗  用 Google Maps 開啟</text><rect x="20" y="763" width="353" height="50" rx="11" fill="#147a58" stroke="none" stroke-width="0"/><text x="196.5" y="795" font-size="17" font-weight="650" fill="#ffffff" text-anchor="middle">套用位置</text></svg>