<svg xmlns="http://www.w3.org/2000/svg" width="1206" height="2622" viewBox="0 0 402 874">
<style>text{font-family:-apple-system,BlinkMacSystemFont,"PingFang TC","Noto Sans CJK TC",sans-serif}</style>
<rect x="0" y="0" width="402" height="874" rx="0" fill="#e6efe8" stroke="none" stroke-width="0"/><text x="24" y="27" font-size="13" font-weight="650" fill="#18221e" text-anchor="start">9:41</text><rect x="145.0" y="11" width="112" height="29" rx="15" fill="#090b0a" stroke="none" stroke-width="0"/><text x="377" y="27" font-size="11" font-weight="600" fill="#18221e" text-anchor="end">●  5G  ▰</text><rect x="0" y="46" width="402" height="50" rx="0" fill="#ffffff" stroke="none" stroke-width="0"/><line x1="0" y1="96" x2="402" y2="96" stroke="#edf0ee" stroke-width="1"/><text x="18" y="78" font-size="32" font-weight="350" fill="#087b58" text-anchor="start">‹</text><text x="39" y="75" font-size="15" font-weight="500" fill="#087b58" text-anchor="start">返回</text><text x="201.0" y="76" font-size="17" font-weight="650" fill="#18221e" text-anchor="middle">附近店家</text><text x="384" y="76" font-size="24" font-weight="500" fill="#087b58" text-anchor="end">⚙</text><line x1="0" y1="120" x2="402" y2="90" stroke="#ffffff" stroke-width="8"/><line x1="0" y1="190" x2="402" y2="160" stroke="#ffffff" stroke-width="8"/><line x1="0" y1="260" x2="402" y2="230" stroke="#ffffff" stroke-width="8"/><line x1="0" y1="330" x2="402" y2="300" stroke="#ffffff" stroke-width="8"/><line x1="0" y1="400" x2="402" y2="370" stroke="#ffffff" stroke-width="8"/><line x1="0" y1="470" x2="402" y2="440" stroke="#ffffff" stroke-width="8"/><line x1="0" y1="540" x2="402" y2="510" stroke="#ffffff" stroke-width="8"/><line x1="0" y1="610" x2="402" y2="580" stroke="#ffffff" stroke-width="8"/><line x1="0" y1="680" x2="402" y2="650" stroke="#ffffff" stroke-width="8"/><line x1="0" y1="750" x2="402" y2="720" stroke="#ffffff" stroke-width="8"/><line x1="15" y1="96" x2="35" y2="874" stroke="#cad9cf" stroke-width="2"/><line x1="83" y1="96" x2="103" y2="874" stroke="#cad9cf" stroke-width="2"/><line x1="151" y1="96" x2="171" y2="874" stroke="#cad9cf" stroke-width="2"/><line x1="219" y1="96" x2="239" y2="874" stroke="#cad9cf" stroke-width="2"/><line x1="287" y1="96" x2="307" y2="874" stroke="#cad9cf" stroke-width="2"/><line x1="355" y1="96" x2="375" y2="874" stroke="#cad9cf" stroke-width="2"/><line x1="423" y1="96" x2="443" y2="874" stroke="#cad9cf" stroke-width="2"/><circle cx="201.0" cy="437.0" r="178" fill="#3b82f61b" stroke="#3b82f666" stroke-width="2"/><circle cx="201.0" cy="437.0" r="8" fill="#2384e8" stroke="#fff" stroke-width="3"/><rect x="78.62" y="257.9" width="92" height="35" rx="8" fill="#ffffffee" stroke="none" stroke-width="0"/><text x="124.62" y="272.9" font-size="11" font-weight="700" fill="#18221e" text-anchor="middle">青沐食堂</text><text x="124.62" y="285.9" font-size="9" font-weight="450" fill="#68726d" text-anchor="middle">美食</text><text x="124.62" y="323.9" font-size="42" font-weight="700" fill="#e43f3f" text-anchor="middle">●</text><rect x="219.32" y="319.08" width="92" height="35" rx="8" fill="#ffffffee" stroke="none" stroke-width="0"/><text x="265.32" y="334.08" font-size="11" font-weight="700" fill="#18221e" text-anchor="middle">巷口咖啡</text><text x="265.32" y="347.08" font-size="9" font-weight="450" fill="#68726d" text-anchor="middle">咖啡</text><text x="265.32" y="385.08" font-size="42" font-weight="700" fill="#e43f3f" text-anchor="middle">●</text><rect x="138.92000000000002" y="511.36" width="92" height="35" rx="8" fill="#ffffffee" stroke="none" stroke-width="0"/><text x="184.92000000000002" y="526.36" font-size="11" font-weight="700" fill="#18221e" text-anchor="middle">日光雜貨</text><text x="184.92000000000002" y="539.36" font-size="9" font-weight="450" fill="#68726d" text-anchor="middle">特殊販賣物</text><text x="184.92000000000002" y="577.36" font-size="42" font-weight="700" fill="#e43f3f" text-anchor="middle">●</text><rect x="55" y="784" width="292" height="45" rx="12" fill="#ffffffdd" stroke="none" stroke-width="0"/><rect x="59" y="788" width="142.0" height="37" rx="9" fill="#147a58" stroke="none" stroke-width="0"/><text x="130.0" y="812" font-size="13" font-weight="650" fill="#ffffff" text-anchor="middle">⌖ 地圖</text><text x="272.0" y="812" font-size="13" font-weight="650" fill="#56615c" text-anchor="middle">☷ 清單</text><rect x="0" y="46" width="402" height="50" rx="0" fill="#ffffff" stroke="none" stroke-width="0"/><text x="18" y="78" font-size="15" font-weight="500" fill="#087b58" text-anchor="start">‹ 返回</text><text x="201.0" y="76" font-size="17" font-weight="650" fill="#18221e" text-anchor="middle">紀錄資料</text><text x="384" y="76" font-size="18" font-weight="650" fill="#087b58" text-anchor="end">⌖  ☷</text><rect x="118.0" y="748" width="166" height="34" rx="17" fill="#ffffffdd" stroke="none" stroke-width="0"/><text x="201.0" y="770" font-size="12" font-weight="650" fill="#18221e" text-anchor="middle">瀏覽範圍共 3 間店家</text></svg>