<svg xmlns="http://www.w3.org/2000/svg" width="1206" height="2622" viewBox="0 0 402 874">
<style>text{font-family:-apple-system,BlinkMacSystemFont,"PingFang TC","Noto Sans CJK TC",sans-serif}</style>
<rect x="0" y="0" width="402" height="874" rx="0" fill="#f3f4f3" stroke="none" stroke-width="0"/><text x="24" y="27" font-size="13" font-weight="650" fill="#18221e" text-anchor="start">9:41</text><rect x="145.0" y="11" width="112" height="29" rx="15" fill="#090b0a" stroke="none" stroke-width="0"/><text x="377" y="27" font-size="11" font-weight="600" fill="#18221e" text-anchor="end">●  5G  ▰</text><rect x="0" y="46" width="402" height="50" rx="0" fill="#ffffff" stroke="none" stroke-width="0"/><line x1="0" y1="96" x2="402" y2="96" stroke="#edf0ee" stroke-width="1"/><text x="18" y="78" font-size="32" font-weight="350" fill="#087b58" text-anchor="start">‹</text><text x="39" y="75" font-size="15" font-weight="500" fill="#087b58" text-anchor="start">返回</text><text x="201.0" y="76" font-size="17" font-weight="650" fill="#18221e" text-anchor="middle">紀錄資料</text><text x="384" y="76" font-size="24" font-weight="500" fill="#087b58" text-anchor="end">⌖  ☷</text><rect x="18" y="112" width="366" height="40" rx="10" fill="#ffffff" stroke="none" stroke-width="0"/><text x="34" y="137" font-size="13" font-weight="400" fill="#929a96" text-anchor="start">搜尋名稱、類型、國家或資料</text><text x="372" y="181" font-size="13" font-weight="600" fill="#147a58" text-anchor="end">排序：時間（最近優先）⌄</text><rect x="16" y="202" width="370" height="94" rx="17" fill="#ffffff" stroke="none" stroke-width="0"/><defs><linearGradient id="shop" x1="0" y1="0" x2="0" y2="1"><stop offset="0" stop-color="#b9d9df"/><stop offset="0.52" stop-color="#f4ddbc"/><stop offset="1" stop-color="#806a55"/></linearGradient></defs><rect x="28" y="214" width="70" height="70" rx="16" fill="url(#shop)" stroke="none" stroke-width="0"/><rect x="42" y="237.8" width="42" height="23.8" rx="4" fill="#f8f1e6" stroke="none" stroke-width="0"/><rect x="54" y="249.0" width="18" height="12.6" rx="2" fill="#173b2e" stroke="none" stroke-width="0"/><text x="63.0" y="257.4" font-size="13" font-weight="700" fill="#ffffff" text-anchor="middle">青沐食堂</text><rect x="56" y="262.3" width="16.1" height="18.900000000000002" rx="2" fill="#252d29" stroke="none" stroke-width="0"/><rect x="70.69999999999999" y="262.3" width="14.0" height="18.900000000000002" rx="2" fill="#d5e5df" stroke="none" stroke-width="0"/><text x="112" y="234" font-size="16" font-weight="700" fill="#18221e" text-anchor="start">青沐食堂</text><text x="112" y="258" font-size="13" font-weight="400" fill="#68726d" text-anchor="start">美食・台灣</text><text x="112" y="280" font-size="12" font-weight="400" fill="#989f9b" text-anchor="start">0.8 公里</text><text x="368" y="259" font-size="25" font-weight="400" fill="#a5aaa7" text-anchor="end">›</text><rect x="16" y="310" width="370" height="94" rx="17" fill="#ffffff" stroke="none" stroke-width="0"/><defs><linearGradient id="shop" x1="0" y1="0" x2="0" y2="1"><stop offset="0" stop-color="#b9d9df"/><stop offset="0.52" stop-color="#f4ddbc"/><stop offset="1" stop-color="#806a55"/></linearGradient></defs><rect x="28" y="322" width="70" height="70" rx="16" fill="url(#shop)" stroke="none" stroke-width="0"/><rect x="42" y="345.8" width="42" height="23.8" rx="4" fill="#f8f1e6" stroke="none" stroke-width="0"/><rect x="54" y="357.0" width="18" height="12.6" rx="2" fill="#173b2e" stroke="none" stroke-width="0"/><text x="63.0" y="365.4" font-size="13" font-weight="700" fill="#ffffff" text-anchor="middle">日光雜貨</text><rect x="56" y="370.3" width="16.1" height="18.900000000000002" rx="2" fill="#252d29" stroke="none" stroke-width="0"/><rect x="70.69999999999999" y="370.3" width="14.0" height="18.900000000000002" rx="2" fill="#d5e5df" stroke="none" stroke-width="0"/><text x="112" y="342" font-size="16" font-weight="700" fill="#18221e" text-anchor="start">日光雜貨</text><text x="112" y="366" font-size="13" font-weight="400" fill="#68726d" text-anchor="start">特殊販賣物・日本</text><text x="112" y="388" font-size="12" font-weight="400" fill="#989f9b" text-anchor="start">1.2 公里</text><text x="368" y="367" font-size="25" font-weight="400" fill="#a5aaa7" text-anchor="end">›</text><rect x="16" y="418" width="370" height="94" rx="17" fill="#ffffff" stroke="none" stroke-width="0"/><defs><linearGradient id="shop" x1="0" y1="0" x2="0" y2="1"><stop offset="0" stop-color="#b9d9df"/><stop offset="0.52" stop-color="#f4ddbc"/><stop offset="1" stop-color="#806a55"/></linearGradient></defs><rect x="28" y="430" width="70" height="70" rx="16" fill="url(#shop)" stroke="none" stroke-width="0"/><rect x="42" y="453.8" width="42" height="23.8" rx="4" fill="#f8f1e6" stroke="none" stroke-width="0"/><rect x="54" y="465.0" width="18" height="12.6" rx="2" fill="#173b2e" stroke="none" stroke-width="0"/><text x="63.0" y="473.4" font-size="13" font-weight="700" fill="#ffffff" text-anchor="middle">巷口咖啡</text><rect x="56" y="478.3" width="16.1" height="18.900000000000002" rx="2" fill="#252d29" stroke="none" stroke-width="0"/><rect x="70.69999999999999" y="478.3" width="14.0" height="18.900000000000002" rx="2" fill="#d5e5df" stroke="none" stroke-width="0"/><text x="112" y="450" font-size="16" font-weight="700" fill="#18221e" text-anchor="start">巷口咖啡</text><text x="112" y="474" font-size="13" font-weight="400" fill="#68726d" text-anchor="start">咖啡・台灣</text><text x="112" y="496" font-size="12" font-weight="400" fill="#989f9b" text-anchor="start">1.7 公里</text><text x="368" y="475" font-size="25" font-weight="400" fill="#a5aaa7" text-anchor="end">›</text></svg>